<?xml version="1.0" encoding="utf-8" standalone="no"?>
<!DOCTYPE svg PUBLIC "-//W3C//DTD SVG 1.1//EN"
  "http://www.w3.org/Graphics/SVG/1.1/DTD/svg11.dtd">
<svg xmlns:xlink="http://www.w3.org/1999/xlink" width="1008pt" height="360pt" viewBox="0 0 1008 360" xmlns="http://www.w3.org/2000/svg" version="1.1">
 <metadata>
  <rdf:RDF xmlns:dc="http://purl.org/dc/elements/1.1/" xmlns:cc="http://creativecommons.org/ns#" xmlns:rdf="http://www.w3.org/1999/02/22-rdf-syntax-ns#">
   <cc:Work>
    <dc:type rdf:resource="http://purl.org/dc/dcmitype/StillImage"/>
    <dc:date>2024-12-18T21:04:10.180286</dc:date>
    <dc:format>image/svg+xml</dc:format>
    <dc:creator>
     <cc:Agent>
      <dc:title>Matplotlib v3.9.3, https://matplotlib.org/</dc:title>
     </cc:Agent>
    </dc:creator>
   </cc:Work>
  </rdf:RDF>
 </metadata>
 <defs>
  <style type="text/css">*{stroke-linejoin: round; stroke-linecap: butt}</style>
 </defs>
 <g id="figure_1">
  <g id="patch_1">
   <path d="M 0 360 
L 1008 360 
L 1008 0 
L 0 0 
z
" style="fill: #ffffff"/>
  </g>
  <g id="axes_1">
   <g id="patch_2">
    <path d="M 38.27 124.070507 
L 991.250172 124.070507 
L 991.250172 26.88 
L 38.27 26.88 
z
" style="fill: #ffffff"/>
   </g>
   <g id="patch_3">
    <path d="M 47.799802 124.070507 
L 66.859405 124.070507 
L 66.859405 31.508119 
L 47.799802 31.508119 
z
" clip-path="url(#p0a1a51b807)" style="fill: #fde725"/>
   </g>
   <g id="patch_4">
    <path d="M 85.919009 124.070507 
L 104.978612 124.070507 
L 104.978612 57.954516 
L 85.919009 57.954516 
z
" clip-path="url(#p0a1a51b807)" style="fill: #4ac16d"/>
   </g>
   <g id="patch_5">
    <path d="M 124.038215 124.070507 
L 143.097819 124.070507 
L 143.097819 84.400912 
L 124.038215 84.400912 
z
" clip-path="url(#p0a1a51b807)" style="fill: #277f8e"/>
   </g>
   <g id="patch_6">
    <path d="M 162.157422 124.070507 
L 181.217026 124.070507 
L 181.217026 84.400912 
L 162.157422 84.400912 
z
" clip-path="url(#p0a1a51b807)" style="fill: #277f8e"/>
   </g>
   <g id="patch_7">
    <path d="M 200.276629 124.070507 
L 219.336233 124.070507 
L 219.336233 84.400912 
L 200.276629 84.400912 
z
" clip-path="url(#p0a1a51b807)" style="fill: #277f8e"/>
   </g>
   <g id="patch_8">
    <path d="M 238.395836 124.070507 
L 257.45544 124.070507 
L 257.45544 84.400912 
L 238.395836 84.400912 
z
" clip-path="url(#p0a1a51b807)" style="fill: #277f8e"/>
   </g>
   <g id="patch_9">
    <path d="M 276.515043 124.070507 
L 295.574646 124.070507 
L 295.574646 97.62411 
L 276.515043 97.62411 
z
" clip-path="url(#p0a1a51b807)" style="fill: #365c8d"/>
   </g>
   <g id="patch_10">
    <path d="M 314.63425 124.070507 
L 333.693853 124.070507 
L 333.693853 97.62411 
L 314.63425 97.62411 
z
" clip-path="url(#p0a1a51b807)" style="fill: #365c8d"/>
   </g>
   <g id="patch_11">
    <path d="M 352.753457 124.070507 
L 371.81306 124.070507 
L 371.81306 110.847308 
L 352.753457 110.847308 
z
" clip-path="url(#p0a1a51b807)" style="fill: #46327e"/>
   </g>
   <g id="patch_12">
    <path d="M 390.872664 124.070507 
L 409.932267 124.070507 
L 409.932267 110.847308 
L 390.872664 110.847308 
z
" clip-path="url(#p0a1a51b807)" style="fill: #46327e"/>
   </g>
   <g id="patch_13">
    <path d="M 428.991871 124.070507 
L 448.051474 124.070507 
L 448.051474 110.847308 
L 428.991871 110.847308 
z
" clip-path="url(#p0a1a51b807)" style="fill: #46327e"/>
   </g>
   <g id="patch_14">
    <path d="M 467.111077 124.070507 
L 486.170681 124.070507 
L 486.170681 110.847308 
L 467.111077 110.847308 
z
" clip-path="url(#p0a1a51b807)" style="fill: #46327e"/>
   </g>
   <g id="patch_15">
    <path d="M 505.230284 124.070507 
L 524.289888 124.070507 
L 524.289888 110.847308 
L 505.230284 110.847308 
z
" clip-path="url(#p0a1a51b807)" style="fill: #46327e"/>
   </g>
   <g id="patch_16">
    <path d="M 543.349491 124.070507 
L 562.409095 124.070507 
L 562.409095 110.847308 
L 543.349491 110.847308 
z
" clip-path="url(#p0a1a51b807)" style="fill: #46327e"/>
   </g>
   <g id="patch_17">
    <path d="M 581.468698 124.070507 
L 600.528302 124.070507 
L 600.528302 110.847308 
L 581.468698 110.847308 
z
" clip-path="url(#p0a1a51b807)" style="fill: #46327e"/>
   </g>
   <g id="patch_18">
    <path d="M 619.587905 124.070507 
L 638.647508 124.070507 
L 638.647508 110.847308 
L 619.587905 110.847308 
z
" clip-path="url(#p0a1a51b807)" style="fill: #46327e"/>
   </g>
   <g id="patch_19">
    <path d="M 657.707112 124.070507 
L 676.766715 124.070507 
L 676.766715 110.847308 
L 657.707112 110.847308 
z
" clip-path="url(#p0a1a51b807)" style="fill: #46327e"/>
   </g>
   <g id="patch_20">
    <path d="M 695.826319 124.070507 
L 714.885922 124.070507 
L 714.885922 110.847308 
L 695.826319 110.847308 
z
" clip-path="url(#p0a1a51b807)" style="fill: #46327e"/>
   </g>
   <g id="patch_21">
    <path d="M 733.945526 124.070507 
L 753.005129 124.070507 
L 753.005129 110.847308 
L 733.945526 110.847308 
z
" clip-path="url(#p0a1a51b807)" style="fill: #46327e"/>
   </g>
   <g id="patch_22">
    <path d="M 772.064733 124.070507 
L 791.124336 124.070507 
L 791.124336 110.847308 
L 772.064733 110.847308 
z
" clip-path="url(#p0a1a51b807)" style="fill: #46327e"/>
   </g>
   <g id="patch_23">
    <path d="M 810.183939 124.070507 
L 829.243543 124.070507 
L 829.243543 110.847308 
L 810.183939 110.847308 
z
" clip-path="url(#p0a1a51b807)" style="fill: #46327e"/>
   </g>
   <g id="patch_24">
    <path d="M 848.303146 124.070507 
L 867.36275 124.070507 
L 867.36275 110.847308 
L 848.303146 110.847308 
z
" clip-path="url(#p0a1a51b807)" style="fill: #46327e"/>
   </g>
   <g id="patch_25">
    <path d="M 886.422353 124.070507 
L 905.481957 124.070507 
L 905.481957 110.847308 
L 886.422353 110.847308 
z
" clip-path="url(#p0a1a51b807)" style="fill: #46327e"/>
   </g>
   <g id="patch_26">
    <path d="M 924.54156 124.070507 
L 943.601164 124.070507 
L 943.601164 110.847308 
L 924.54156 110.847308 
z
" clip-path="url(#p0a1a51b807)" style="fill: #46327e"/>
   </g>
   <g id="patch_27">
    <path d="M 962.660767 124.070507 
L 981.72037 124.070507 
L 981.72037 110.847308 
L 962.660767 110.847308 
z
" clip-path="url(#p0a1a51b807)" style="fill: #46327e"/>
   </g>
   <g id="matplotlib.axis_1">
    <g id="xtick_1">
     <g id="line2d_1">
      <defs>
       <path id="m9ddbf3395f" d="M 0 0 
L 0 3.5 
" style="stroke: #000000; stroke-width: 0.8"/>
      </defs>
      <g>
       <use xlink:href="#m9ddbf3395f" x="57.329603" y="124.070507" style="stroke: #000000; stroke-width: 0.8"/>
      </g>
     </g>
     <g id="text_1">
      <!-- now -->
      <g transform="translate(51.985423 151.03412) rotate(-45) scale(0.1 -0.1)">
       <defs>
        <path id="DejaVuSans-6e" d="M 3513 2113 
L 3513 0 
L 2938 0 
L 2938 2094 
Q 2938 2591 2744 2837 
Q 2550 3084 2163 3084 
Q 1697 3084 1428 2787 
Q 1159 2491 1159 1978 
L 1159 0 
L 581 0 
L 581 3500 
L 1159 3500 
L 1159 2956 
Q 1366 3272 1645 3428 
Q 1925 3584 2291 3584 
Q 2894 3584 3203 3211 
Q 3513 2838 3513 2113 
z
" transform="scale(0.015625)"/>
        <path id="DejaVuSans-6f" d="M 1959 3097 
Q 1497 3097 1228 2736 
Q 959 2375 959 1747 
Q 959 1119 1226 758 
Q 1494 397 1959 397 
Q 2419 397 2687 759 
Q 2956 1122 2956 1747 
Q 2956 2369 2687 2733 
Q 2419 3097 1959 3097 
z
M 1959 3584 
Q 2709 3584 3137 3096 
Q 3566 2609 3566 1747 
Q 3566 888 3137 398 
Q 2709 -91 1959 -91 
Q 1206 -91 779 398 
Q 353 888 353 1747 
Q 353 2609 779 3096 
Q 1206 3584 1959 3584 
z
" transform="scale(0.015625)"/>
        <path id="DejaVuSans-77" d="M 269 3500 
L 844 3500 
L 1563 769 
L 2278 3500 
L 2956 3500 
L 3675 769 
L 4391 3500 
L 4966 3500 
L 4050 0 
L 3372 0 
L 2619 2869 
L 1863 0 
L 1184 0 
L 269 3500 
z
" transform="scale(0.015625)"/>
       </defs>
       <use xlink:href="#DejaVuSans-6e"/>
       <use xlink:href="#DejaVuSans-6f" x="63.378906"/>
       <use xlink:href="#DejaVuSans-77" x="124.560547"/>
      </g>
     </g>
    </g>
    <g id="xtick_2">
     <g id="line2d_2">
      <g>
       <use xlink:href="#m9ddbf3395f" x="95.44881" y="124.070507" style="stroke: #000000; stroke-width: 0.8"/>
      </g>
     </g>
     <g id="text_2">
      <!-- Ferraday -->
      <g transform="translate(81.87015 167.503079) rotate(-45) scale(0.1 -0.1)">
       <defs>
        <path id="DejaVuSans-46" d="M 628 4666 
L 3309 4666 
L 3309 4134 
L 1259 4134 
L 1259 2759 
L 3109 2759 
L 3109 2228 
L 1259 2228 
L 1259 0 
L 628 0 
L 628 4666 
z
" transform="scale(0.015625)"/>
        <path id="DejaVuSans-65" d="M 3597 1894 
L 3597 1613 
L 953 1613 
Q 991 1019 1311 708 
Q 1631 397 2203 397 
Q 2534 397 2845 478 
Q 3156 559 3463 722 
L 3463 178 
Q 3153 47 2828 -22 
Q 2503 -91 2169 -91 
Q 1331 -91 842 396 
Q 353 884 353 1716 
Q 353 2575 817 3079 
Q 1281 3584 2069 3584 
Q 2775 3584 3186 3129 
Q 3597 2675 3597 1894 
z
M 3022 2063 
Q 3016 2534 2758 2815 
Q 2500 3097 2075 3097 
Q 1594 3097 1305 2825 
Q 1016 2553 972 2059 
L 3022 2063 
z
" transform="scale(0.015625)"/>
        <path id="DejaVuSans-72" d="M 2631 2963 
Q 2534 3019 2420 3045 
Q 2306 3072 2169 3072 
Q 1681 3072 1420 2755 
Q 1159 2438 1159 1844 
L 1159 0 
L 581 0 
L 581 3500 
L 1159 3500 
L 1159 2956 
Q 1341 3275 1631 3429 
Q 1922 3584 2338 3584 
Q 2397 3584 2469 3576 
Q 2541 3569 2628 3553 
L 2631 2963 
z
" transform="scale(0.015625)"/>
        <path id="DejaVuSans-61" d="M 2194 1759 
Q 1497 1759 1228 1600 
Q 959 1441 959 1056 
Q 959 750 1161 570 
Q 1363 391 1709 391 
Q 2188 391 2477 730 
Q 2766 1069 2766 1631 
L 2766 1759 
L 2194 1759 
z
M 3341 1997 
L 3341 0 
L 2766 0 
L 2766 531 
Q 2569 213 2275 61 
Q 1981 -91 1556 -91 
Q 1019 -91 701 211 
Q 384 513 384 1019 
Q 384 1609 779 1909 
Q 1175 2209 1959 2209 
L 2766 2209 
L 2766 2266 
Q 2766 2663 2505 2880 
Q 2244 3097 1772 3097 
Q 1472 3097 1187 3025 
Q 903 2953 641 2809 
L 641 3341 
Q 956 3463 1253 3523 
Q 1550 3584 1831 3584 
Q 2591 3584 2966 3190 
Q 3341 2797 3341 1997 
z
" transform="scale(0.015625)"/>
        <path id="DejaVuSans-64" d="M 2906 2969 
L 2906 4863 
L 3481 4863 
L 3481 0 
L 2906 0 
L 2906 525 
Q 2725 213 2448 61 
Q 2172 -91 1784 -91 
Q 1150 -91 751 415 
Q 353 922 353 1747 
Q 353 2572 751 3078 
Q 1150 3584 1784 3584 
Q 2172 3584 2448 3432 
Q 2725 3281 2906 2969 
z
M 947 1747 
Q 947 1113 1208 752 
Q 1469 391 1925 391 
Q 2381 391 2643 752 
Q 2906 1113 2906 1747 
Q 2906 2381 2643 2742 
Q 2381 3103 1925 3103 
Q 1469 3103 1208 2742 
Q 947 2381 947 1747 
z
" transform="scale(0.015625)"/>
        <path id="DejaVuSans-79" d="M 2059 -325 
Q 1816 -950 1584 -1140 
Q 1353 -1331 966 -1331 
L 506 -1331 
L 506 -850 
L 844 -850 
Q 1081 -850 1212 -737 
Q 1344 -625 1503 -206 
L 1606 56 
L 191 3500 
L 800 3500 
L 1894 763 
L 2988 3500 
L 3597 3500 
L 2059 -325 
z
" transform="scale(0.015625)"/>
       </defs>
       <use xlink:href="#DejaVuSans-46"/>
       <use xlink:href="#DejaVuSans-65" x="52.019531"/>
       <use xlink:href="#DejaVuSans-72" x="113.542969"/>
       <use xlink:href="#DejaVuSans-72" x="152.90625"/>
       <use xlink:href="#DejaVuSans-61" x="194.019531"/>
       <use xlink:href="#DejaVuSans-64" x="255.298828"/>
       <use xlink:href="#DejaVuSans-61" x="318.775391"/>
       <use xlink:href="#DejaVuSans-79" x="380.054688"/>
      </g>
     </g>
    </g>
    <g id="xtick_3">
     <g id="line2d_3">
      <g>
       <use xlink:href="#m9ddbf3395f" x="133.568017" y="124.070507" style="stroke: #000000; stroke-width: 0.8"/>
      </g>
     </g>
     <g id="text_3">
      <!-- Once -->
      <g transform="translate(126.375968 154.729858) rotate(-45) scale(0.1 -0.1)">
       <defs>
        <path id="DejaVuSans-4f" d="M 2522 4238 
Q 1834 4238 1429 3725 
Q 1025 3213 1025 2328 
Q 1025 1447 1429 934 
Q 1834 422 2522 422 
Q 3209 422 3611 934 
Q 4013 1447 4013 2328 
Q 4013 3213 3611 3725 
Q 3209 4238 2522 4238 
z
M 2522 4750 
Q 3503 4750 4090 4092 
Q 4678 3434 4678 2328 
Q 4678 1225 4090 567 
Q 3503 -91 2522 -91 
Q 1538 -91 948 565 
Q 359 1222 359 2328 
Q 359 3434 948 4092 
Q 1538 4750 2522 4750 
z
" transform="scale(0.015625)"/>
        <path id="DejaVuSans-63" d="M 3122 3366 
L 3122 2828 
Q 2878 2963 2633 3030 
Q 2388 3097 2138 3097 
Q 1578 3097 1268 2742 
Q 959 2388 959 1747 
Q 959 1106 1268 751 
Q 1578 397 2138 397 
Q 2388 397 2633 464 
Q 2878 531 3122 666 
L 3122 134 
Q 2881 22 2623 -34 
Q 2366 -91 2075 -91 
Q 1284 -91 818 406 
Q 353 903 353 1747 
Q 353 2603 823 3093 
Q 1294 3584 2113 3584 
Q 2378 3584 2631 3529 
Q 2884 3475 3122 3366 
z
" transform="scale(0.015625)"/>
       </defs>
       <use xlink:href="#DejaVuSans-4f"/>
       <use xlink:href="#DejaVuSans-6e" x="78.710938"/>
       <use xlink:href="#DejaVuSans-63" x="142.089844"/>
       <use xlink:href="#DejaVuSans-65" x="197.070312"/>
      </g>
     </g>
    </g>
    <g id="xtick_4">
     <g id="line2d_4">
      <g>
       <use xlink:href="#m9ddbf3395f" x="171.687224" y="124.070507" style="stroke: #000000; stroke-width: 0.8"/>
      </g>
     </g>
     <g id="text_4">
      <!-- once -->
      <g transform="translate(165.114998 153.490211) rotate(-45) scale(0.1 -0.1)">
       <use xlink:href="#DejaVuSans-6f"/>
       <use xlink:href="#DejaVuSans-6e" x="61.181641"/>
       <use xlink:href="#DejaVuSans-63" x="124.560547"/>
       <use xlink:href="#DejaVuSans-65" x="179.541016"/>
      </g>
     </g>
    </g>
    <g id="xtick_5">
     <g id="line2d_5">
      <g>
       <use xlink:href="#m9ddbf3395f" x="209.806431" y="124.070507" style="stroke: #000000; stroke-width: 0.8"/>
      </g>
     </g>
     <g id="text_5">
      <!-- the -->
      <g transform="translate(205.955461 148.047698) rotate(-45) scale(0.1 -0.1)">
       <defs>
        <path id="DejaVuSans-74" d="M 1172 4494 
L 1172 3500 
L 2356 3500 
L 2356 3053 
L 1172 3053 
L 1172 1153 
Q 1172 725 1289 603 
Q 1406 481 1766 481 
L 2356 481 
L 2356 0 
L 1766 0 
Q 1100 0 847 248 
Q 594 497 594 1153 
L 594 3053 
L 172 3053 
L 172 3500 
L 594 3500 
L 594 4494 
L 1172 4494 
z
" transform="scale(0.015625)"/>
        <path id="DejaVuSans-68" d="M 3513 2113 
L 3513 0 
L 2938 0 
L 2938 2094 
Q 2938 2591 2744 2837 
Q 2550 3084 2163 3084 
Q 1697 3084 1428 2787 
Q 1159 2491 1159 1978 
L 1159 0 
L 581 0 
L 581 4863 
L 1159 4863 
L 1159 2956 
Q 1366 3272 1645 3428 
Q 1925 3584 2291 3584 
Q 2894 3584 3203 3211 
Q 3513 2838 3513 2113 
z
" transform="scale(0.015625)"/>
       </defs>
       <use xlink:href="#DejaVuSans-74"/>
       <use xlink:href="#DejaVuSans-68" x="39.208984"/>
       <use xlink:href="#DejaVuSans-65" x="102.587891"/>
      </g>
     </g>
    </g>
    <g id="xtick_6">
     <g id="line2d_6">
      <g>
       <use xlink:href="#m9ddbf3395f" x="247.925638" y="124.070507" style="stroke: #000000; stroke-width: 0.8"/>
      </g>
     </g>
     <g id="text_6">
      <!-- later -->
      <g transform="translate(241.713042 152.770951) rotate(-45) scale(0.1 -0.1)">
       <defs>
        <path id="DejaVuSans-6c" d="M 603 4863 
L 1178 4863 
L 1178 0 
L 603 0 
L 603 4863 
z
" transform="scale(0.015625)"/>
       </defs>
       <use xlink:href="#DejaVuSans-6c"/>
       <use xlink:href="#DejaVuSans-61" x="27.783203"/>
       <use xlink:href="#DejaVuSans-74" x="89.0625"/>
       <use xlink:href="#DejaVuSans-65" x="128.271484"/>
       <use xlink:href="#DejaVuSans-72" x="189.794922"/>
      </g>
     </g>
    </g>
    <g id="xtick_7">
     <g id="line2d_7">
      <g>
       <use xlink:href="#m9ddbf3395f" x="286.044845" y="124.070507" style="stroke: #000000; stroke-width: 0.8"/>
      </g>
     </g>
     <g id="text_7">
      <!-- years -->
      <g transform="translate(278.266118 155.903213) rotate(-45) scale(0.1 -0.1)">
       <defs>
        <path id="DejaVuSans-73" d="M 2834 3397 
L 2834 2853 
Q 2591 2978 2328 3040 
Q 2066 3103 1784 3103 
Q 1356 3103 1142 2972 
Q 928 2841 928 2578 
Q 928 2378 1081 2264 
Q 1234 2150 1697 2047 
L 1894 2003 
Q 2506 1872 2764 1633 
Q 3022 1394 3022 966 
Q 3022 478 2636 193 
Q 2250 -91 1575 -91 
Q 1294 -91 989 -36 
Q 684 19 347 128 
L 347 722 
Q 666 556 975 473 
Q 1284 391 1588 391 
Q 1994 391 2212 530 
Q 2431 669 2431 922 
Q 2431 1156 2273 1281 
Q 2116 1406 1581 1522 
L 1381 1569 
Q 847 1681 609 1914 
Q 372 2147 372 2553 
Q 372 3047 722 3315 
Q 1072 3584 1716 3584 
Q 2034 3584 2315 3537 
Q 2597 3491 2834 3397 
z
" transform="scale(0.015625)"/>
       </defs>
       <use xlink:href="#DejaVuSans-79"/>
       <use xlink:href="#DejaVuSans-65" x="59.179688"/>
       <use xlink:href="#DejaVuSans-61" x="120.703125"/>
       <use xlink:href="#DejaVuSans-72" x="181.982422"/>
       <use xlink:href="#DejaVuSans-73" x="223.095703"/>
      </g>
     </g>
    </g>
    <g id="xtick_8">
     <g id="line2d_8">
      <g>
       <use xlink:href="#m9ddbf3395f" x="324.164052" y="124.070507" style="stroke: #000000; stroke-width: 0.8"/>
      </g>
     </g>
     <g id="text_8">
      <!-- Now -->
      <g transform="translate(318.415494 151.842873) rotate(-45) scale(0.1 -0.1)">
       <defs>
        <path id="DejaVuSans-4e" d="M 628 4666 
L 1478 4666 
L 3547 763 
L 3547 4666 
L 4159 4666 
L 4159 0 
L 3309 0 
L 1241 3903 
L 1241 0 
L 628 0 
L 628 4666 
z
" transform="scale(0.015625)"/>
       </defs>
       <use xlink:href="#DejaVuSans-4e"/>
       <use xlink:href="#DejaVuSans-6f" x="74.804688"/>
       <use xlink:href="#DejaVuSans-77" x="135.986328"/>
      </g>
     </g>
    </g>
    <g id="xtick_9">
     <g id="line2d_9">
      <g>
       <use xlink:href="#m9ddbf3395f" x="362.283259" y="124.070507" style="stroke: #000000; stroke-width: 0.8"/>
      </g>
     </g>
     <g id="text_9">
      <!-- previously -->
      <g transform="translate(346.045214 172.821847) rotate(-45) scale(0.1 -0.1)">
       <defs>
        <path id="DejaVuSans-70" d="M 1159 525 
L 1159 -1331 
L 581 -1331 
L 581 3500 
L 1159 3500 
L 1159 2969 
Q 1341 3281 1617 3432 
Q 1894 3584 2278 3584 
Q 2916 3584 3314 3078 
Q 3713 2572 3713 1747 
Q 3713 922 3314 415 
Q 2916 -91 2278 -91 
Q 1894 -91 1617 61 
Q 1341 213 1159 525 
z
M 3116 1747 
Q 3116 2381 2855 2742 
Q 2594 3103 2138 3103 
Q 1681 3103 1420 2742 
Q 1159 2381 1159 1747 
Q 1159 1113 1420 752 
Q 1681 391 2138 391 
Q 2594 391 2855 752 
Q 3116 1113 3116 1747 
z
" transform="scale(0.015625)"/>
        <path id="DejaVuSans-76" d="M 191 3500 
L 800 3500 
L 1894 563 
L 2988 3500 
L 3597 3500 
L 2284 0 
L 1503 0 
L 191 3500 
z
" transform="scale(0.015625)"/>
        <path id="DejaVuSans-69" d="M 603 3500 
L 1178 3500 
L 1178 0 
L 603 0 
L 603 3500 
z
M 603 4863 
L 1178 4863 
L 1178 4134 
L 603 4134 
L 603 4863 
z
" transform="scale(0.015625)"/>
        <path id="DejaVuSans-75" d="M 544 1381 
L 544 3500 
L 1119 3500 
L 1119 1403 
Q 1119 906 1312 657 
Q 1506 409 1894 409 
Q 2359 409 2629 706 
Q 2900 1003 2900 1516 
L 2900 3500 
L 3475 3500 
L 3475 0 
L 2900 0 
L 2900 538 
Q 2691 219 2414 64 
Q 2138 -91 1772 -91 
Q 1169 -91 856 284 
Q 544 659 544 1381 
z
M 1991 3584 
L 1991 3584 
z
" transform="scale(0.015625)"/>
       </defs>
       <use xlink:href="#DejaVuSans-70"/>
       <use xlink:href="#DejaVuSans-72" x="63.476562"/>
       <use xlink:href="#DejaVuSans-65" x="102.339844"/>
       <use xlink:href="#DejaVuSans-76" x="163.863281"/>
       <use xlink:href="#DejaVuSans-69" x="223.042969"/>
       <use xlink:href="#DejaVuSans-6f" x="250.826172"/>
       <use xlink:href="#DejaVuSans-75" x="312.007812"/>
       <use xlink:href="#DejaVuSans-73" x="375.386719"/>
       <use xlink:href="#DejaVuSans-6c" x="427.486328"/>
       <use xlink:href="#DejaVuSans-79" x="455.269531"/>
      </g>
     </g>
    </g>
    <g id="xtick_10">
     <g id="line2d_10">
      <g>
       <use xlink:href="#m9ddbf3395f" x="400.402465" y="124.070507" style="stroke: #000000; stroke-width: 0.8"/>
      </g>
     </g>
     <g id="text_10">
      <!-- 1946 -->
      <g transform="translate(393.355704 154.439281) rotate(-45) scale(0.1 -0.1)">
       <defs>
        <path id="DejaVuSans-31" d="M 794 531 
L 1825 531 
L 1825 4091 
L 703 3866 
L 703 4441 
L 1819 4666 
L 2450 4666 
L 2450 531 
L 3481 531 
L 3481 0 
L 794 0 
L 794 531 
z
" transform="scale(0.015625)"/>
        <path id="DejaVuSans-39" d="M 703 97 
L 703 672 
Q 941 559 1184 500 
Q 1428 441 1663 441 
Q 2288 441 2617 861 
Q 2947 1281 2994 2138 
Q 2813 1869 2534 1725 
Q 2256 1581 1919 1581 
Q 1219 1581 811 2004 
Q 403 2428 403 3163 
Q 403 3881 828 4315 
Q 1253 4750 1959 4750 
Q 2769 4750 3195 4129 
Q 3622 3509 3622 2328 
Q 3622 1225 3098 567 
Q 2575 -91 1691 -91 
Q 1453 -91 1209 -44 
Q 966 3 703 97 
z
M 1959 2075 
Q 2384 2075 2632 2365 
Q 2881 2656 2881 3163 
Q 2881 3666 2632 3958 
Q 2384 4250 1959 4250 
Q 1534 4250 1286 3958 
Q 1038 3666 1038 3163 
Q 1038 2656 1286 2365 
Q 1534 2075 1959 2075 
z
" transform="scale(0.015625)"/>
        <path id="DejaVuSans-34" d="M 2419 4116 
L 825 1625 
L 2419 1625 
L 2419 4116 
z
M 2253 4666 
L 3047 4666 
L 3047 1625 
L 3713 1625 
L 3713 1100 
L 3047 1100 
L 3047 0 
L 2419 0 
L 2419 1100 
L 313 1100 
L 313 1709 
L 2253 4666 
z
" transform="scale(0.015625)"/>
        <path id="DejaVuSans-36" d="M 2113 2584 
Q 1688 2584 1439 2293 
Q 1191 2003 1191 1497 
Q 1191 994 1439 701 
Q 1688 409 2113 409 
Q 2538 409 2786 701 
Q 3034 994 3034 1497 
Q 3034 2003 2786 2293 
Q 2538 2584 2113 2584 
z
M 3366 4563 
L 3366 3988 
Q 3128 4100 2886 4159 
Q 2644 4219 2406 4219 
Q 1781 4219 1451 3797 
Q 1122 3375 1075 2522 
Q 1259 2794 1537 2939 
Q 1816 3084 2150 3084 
Q 2853 3084 3261 2657 
Q 3669 2231 3669 1497 
Q 3669 778 3244 343 
Q 2819 -91 2113 -91 
Q 1303 -91 875 529 
Q 447 1150 447 2328 
Q 447 3434 972 4092 
Q 1497 4750 2381 4750 
Q 2619 4750 2861 4703 
Q 3103 4656 3366 4563 
z
" transform="scale(0.015625)"/>
       </defs>
       <use xlink:href="#DejaVuSans-31"/>
       <use xlink:href="#DejaVuSans-39" x="63.623047"/>
       <use xlink:href="#DejaVuSans-34" x="127.246094"/>
       <use xlink:href="#DejaVuSans-36" x="190.869141"/>
      </g>
     </g>
    </g>
    <g id="xtick_11">
     <g id="line2d_11">
      <g>
       <use xlink:href="#m9ddbf3395f" x="438.521672" y="124.070507" style="stroke: #000000; stroke-width: 0.8"/>
      </g>
     </g>
     <g id="text_11">
      <!-- weeks -->
      <g transform="translate(429.341438 158.706228) rotate(-45) scale(0.1 -0.1)">
       <defs>
        <path id="DejaVuSans-6b" d="M 581 4863 
L 1159 4863 
L 1159 1991 
L 2875 3500 
L 3609 3500 
L 1753 1863 
L 3688 0 
L 2938 0 
L 1159 1709 
L 1159 0 
L 581 0 
L 581 4863 
z
" transform="scale(0.015625)"/>
       </defs>
       <use xlink:href="#DejaVuSans-77"/>
       <use xlink:href="#DejaVuSans-65" x="81.787109"/>
       <use xlink:href="#DejaVuSans-65" x="143.310547"/>
       <use xlink:href="#DejaVuSans-6b" x="204.833984"/>
       <use xlink:href="#DejaVuSans-73" x="262.744141"/>
      </g>
     </g>
    </g>
    <g id="xtick_12">
     <g id="line2d_12">
      <g>
       <use xlink:href="#m9ddbf3395f" x="476.640879" y="124.070507" style="stroke: #000000; stroke-width: 0.8"/>
      </g>
     </g>
     <g id="text_12">
      <!-- 1954 -->
      <g transform="translate(469.594118 154.439281) rotate(-45) scale(0.1 -0.1)">
       <defs>
        <path id="DejaVuSans-35" d="M 691 4666 
L 3169 4666 
L 3169 4134 
L 1269 4134 
L 1269 2991 
Q 1406 3038 1543 3061 
Q 1681 3084 1819 3084 
Q 2600 3084 3056 2656 
Q 3513 2228 3513 1497 
Q 3513 744 3044 326 
Q 2575 -91 1722 -91 
Q 1428 -91 1123 -41 
Q 819 9 494 109 
L 494 744 
Q 775 591 1075 516 
Q 1375 441 1709 441 
Q 2250 441 2565 725 
Q 2881 1009 2881 1497 
Q 2881 1984 2565 2268 
Q 2250 2553 1709 2553 
Q 1456 2553 1204 2497 
Q 953 2441 691 2322 
L 691 4666 
z
" transform="scale(0.015625)"/>
       </defs>
       <use xlink:href="#DejaVuSans-31"/>
       <use xlink:href="#DejaVuSans-39" x="63.623047"/>
       <use xlink:href="#DejaVuSans-35" x="127.246094"/>
       <use xlink:href="#DejaVuSans-34" x="190.869141"/>
      </g>
     </g>
    </g>
    <g id="xtick_13">
     <g id="line2d_13">
      <g>
       <use xlink:href="#m9ddbf3395f" x="514.760086" y="124.070507" style="stroke: #000000; stroke-width: 0.8"/>
      </g>
     </g>
     <g id="text_13">
      <!-- wed -->
      <g transform="translate(509.399885 151.06616) rotate(-45) scale(0.1 -0.1)">
       <use xlink:href="#DejaVuSans-77"/>
       <use xlink:href="#DejaVuSans-65" x="81.787109"/>
       <use xlink:href="#DejaVuSans-64" x="143.310547"/>
      </g>
     </g>
    </g>
    <g id="xtick_14">
     <g id="line2d_14">
      <g>
       <use xlink:href="#m9ddbf3395f" x="552.879293" y="124.070507" style="stroke: #000000; stroke-width: 0.8"/>
      </g>
     </g>
     <g id="text_14">
      <!-- late -->
      <g transform="translate(548.120133 149.864079) rotate(-45) scale(0.1 -0.1)">
       <use xlink:href="#DejaVuSans-6c"/>
       <use xlink:href="#DejaVuSans-61" x="27.783203"/>
       <use xlink:href="#DejaVuSans-74" x="89.0625"/>
       <use xlink:href="#DejaVuSans-65" x="128.271484"/>
      </g>
     </g>
    </g>
    <g id="xtick_15">
     <g id="line2d_15">
      <g>
       <use xlink:href="#m9ddbf3395f" x="590.9985" y="124.070507" style="stroke: #000000; stroke-width: 0.8"/>
      </g>
     </g>
     <g id="text_15">
      <!-- fall -->
      <g transform="translate(587.574004 147.194751) rotate(-45) scale(0.1 -0.1)">
       <defs>
        <path id="DejaVuSans-66" d="M 2375 4863 
L 2375 4384 
L 1825 4384 
Q 1516 4384 1395 4259 
Q 1275 4134 1275 3809 
L 1275 3500 
L 2222 3500 
L 2222 3053 
L 1275 3053 
L 1275 0 
L 697 0 
L 697 3053 
L 147 3053 
L 147 3500 
L 697 3500 
L 697 3744 
Q 697 4328 969 4595 
Q 1241 4863 1831 4863 
L 2375 4863 
z
" transform="scale(0.015625)"/>
       </defs>
       <use xlink:href="#DejaVuSans-66"/>
       <use xlink:href="#DejaVuSans-61" x="35.205078"/>
       <use xlink:href="#DejaVuSans-6c" x="96.484375"/>
       <use xlink:href="#DejaVuSans-6c" x="124.267578"/>
      </g>
     </g>
    </g>
    <g id="xtick_16">
     <g id="line2d_16">
      <g>
       <use xlink:href="#m9ddbf3395f" x="629.117707" y="124.070507" style="stroke: #000000; stroke-width: 0.8"/>
      </g>
     </g>
     <g id="text_16">
      <!-- hour -->
      <g transform="translate(622.97085 152.639473) rotate(-45) scale(0.1 -0.1)">
       <use xlink:href="#DejaVuSans-68"/>
       <use xlink:href="#DejaVuSans-6f" x="63.378906"/>
       <use xlink:href="#DejaVuSans-75" x="124.560547"/>
       <use xlink:href="#DejaVuSans-72" x="187.939453"/>
      </g>
     </g>
    </g>
    <g id="xtick_17">
     <g id="line2d_17">
      <g>
       <use xlink:href="#m9ddbf3395f" x="667.236914" y="124.070507" style="stroke: #000000; stroke-width: 0.8"/>
      </g>
     </g>
     <g id="text_17">
      <!-- recently -->
      <g transform="translate(654.817798 165.183989) rotate(-45) scale(0.1 -0.1)">
       <use xlink:href="#DejaVuSans-72"/>
       <use xlink:href="#DejaVuSans-65" x="38.863281"/>
       <use xlink:href="#DejaVuSans-63" x="100.386719"/>
       <use xlink:href="#DejaVuSans-65" x="155.367188"/>
       <use xlink:href="#DejaVuSans-6e" x="216.890625"/>
       <use xlink:href="#DejaVuSans-74" x="280.269531"/>
       <use xlink:href="#DejaVuSans-6c" x="319.478516"/>
       <use xlink:href="#DejaVuSans-79" x="347.261719"/>
      </g>
     </g>
    </g>
    <g id="xtick_18">
     <g id="line2d_18">
      <g>
       <use xlink:href="#m9ddbf3395f" x="705.35612" y="124.070507" style="stroke: #000000; stroke-width: 0.8"/>
      </g>
     </g>
     <g id="text_18">
      <!-- Twenty -->
      <g transform="translate(694.945078 161.167844) rotate(-45) scale(0.1 -0.1)">
       <defs>
        <path id="DejaVuSans-54" d="M -19 4666 
L 3928 4666 
L 3928 4134 
L 2272 4134 
L 2272 0 
L 1638 0 
L 1638 4134 
L -19 4134 
L -19 4666 
z
" transform="scale(0.015625)"/>
       </defs>
       <use xlink:href="#DejaVuSans-54"/>
       <use xlink:href="#DejaVuSans-77" x="44.583984"/>
       <use xlink:href="#DejaVuSans-65" x="126.371094"/>
       <use xlink:href="#DejaVuSans-6e" x="187.894531"/>
       <use xlink:href="#DejaVuSans-74" x="251.273438"/>
       <use xlink:href="#DejaVuSans-79" x="290.482422"/>
      </g>
     </g>
    </g>
    <g id="xtick_19">
     <g id="line2d_19">
      <g>
       <use xlink:href="#m9ddbf3395f" x="743.475327" y="124.070507" style="stroke: #000000; stroke-width: 0.8"/>
      </g>
     </g>
     <g id="text_19">
      <!-- current -->
      <g transform="translate(732.674271 161.947871) rotate(-45) scale(0.1 -0.1)">
       <use xlink:href="#DejaVuSans-63"/>
       <use xlink:href="#DejaVuSans-75" x="54.980469"/>
       <use xlink:href="#DejaVuSans-72" x="118.359375"/>
       <use xlink:href="#DejaVuSans-72" x="157.722656"/>
       <use xlink:href="#DejaVuSans-65" x="196.585938"/>
       <use xlink:href="#DejaVuSans-6e" x="258.109375"/>
       <use xlink:href="#DejaVuSans-74" x="321.488281"/>
      </g>
     </g>
    </g>
    <g id="xtick_20">
     <g id="line2d_20">
      <g>
       <use xlink:href="#m9ddbf3395f" x="781.594534" y="124.070507" style="stroke: #000000; stroke-width: 0.8"/>
      </g>
     </g>
     <g id="text_20">
      <!-- Ten -->
      <g transform="translate(777.571207 148.392413) rotate(-45) scale(0.1 -0.1)">
       <use xlink:href="#DejaVuSans-54"/>
       <use xlink:href="#DejaVuSans-65" x="44.083984"/>
       <use xlink:href="#DejaVuSans-6e" x="105.607422"/>
      </g>
     </g>
    </g>
    <g id="xtick_21">
     <g id="line2d_21">
      <g>
       <use xlink:href="#m9ddbf3395f" x="819.713741" y="124.070507" style="stroke: #000000; stroke-width: 0.8"/>
      </g>
     </g>
     <g id="text_21">
      <!-- 1920s -->
      <g transform="translate(810.825188 158.122865) rotate(-45) scale(0.1 -0.1)">
       <defs>
        <path id="DejaVuSans-32" d="M 1228 531 
L 3431 531 
L 3431 0 
L 469 0 
L 469 531 
Q 828 903 1448 1529 
Q 2069 2156 2228 2338 
Q 2531 2678 2651 2914 
Q 2772 3150 2772 3378 
Q 2772 3750 2511 3984 
Q 2250 4219 1831 4219 
Q 1534 4219 1204 4116 
Q 875 4013 500 3803 
L 500 4441 
Q 881 4594 1212 4672 
Q 1544 4750 1819 4750 
Q 2544 4750 2975 4387 
Q 3406 4025 3406 3419 
Q 3406 3131 3298 2873 
Q 3191 2616 2906 2266 
Q 2828 2175 2409 1742 
Q 1991 1309 1228 531 
z
" transform="scale(0.015625)"/>
        <path id="DejaVuSans-30" d="M 2034 4250 
Q 1547 4250 1301 3770 
Q 1056 3291 1056 2328 
Q 1056 1369 1301 889 
Q 1547 409 2034 409 
Q 2525 409 2770 889 
Q 3016 1369 3016 2328 
Q 3016 3291 2770 3770 
Q 2525 4250 2034 4250 
z
M 2034 4750 
Q 2819 4750 3233 4129 
Q 3647 3509 3647 2328 
Q 3647 1150 3233 529 
Q 2819 -91 2034 -91 
Q 1250 -91 836 529 
Q 422 1150 422 2328 
Q 422 3509 836 4129 
Q 1250 4750 2034 4750 
z
" transform="scale(0.015625)"/>
       </defs>
       <use xlink:href="#DejaVuSans-31"/>
       <use xlink:href="#DejaVuSans-39" x="63.623047"/>
       <use xlink:href="#DejaVuSans-32" x="127.246094"/>
       <use xlink:href="#DejaVuSans-30" x="190.869141"/>
       <use xlink:href="#DejaVuSans-73" x="254.492188"/>
      </g>
     </g>
    </g>
    <g id="xtick_22">
     <g id="line2d_22">
      <g>
       <use xlink:href="#m9ddbf3395f" x="857.832948" y="124.070507" style="stroke: #000000; stroke-width: 0.8"/>
      </g>
     </g>
     <g id="text_22">
      <!-- wed. -->
      <g transform="translate(851.34911 153.313434) rotate(-45) scale(0.1 -0.1)">
       <defs>
        <path id="DejaVuSans-2e" d="M 684 794 
L 1344 794 
L 1344 0 
L 684 0 
L 684 794 
z
" transform="scale(0.015625)"/>
       </defs>
       <use xlink:href="#DejaVuSans-77"/>
       <use xlink:href="#DejaVuSans-65" x="81.787109"/>
       <use xlink:href="#DejaVuSans-64" x="143.310547"/>
       <use xlink:href="#DejaVuSans-2e" x="206.787109"/>
      </g>
     </g>
    </g>
    <g id="xtick_23">
     <g id="line2d_23">
      <g>
       <use xlink:href="#m9ddbf3395f" x="895.952155" y="124.070507" style="stroke: #000000; stroke-width: 0.8"/>
      </g>
     </g>
     <g id="text_23">
      <!-- 2593 -->
      <g transform="translate(888.905394 154.439281) rotate(-45) scale(0.1 -0.1)">
       <defs>
        <path id="DejaVuSans-33" d="M 2597 2516 
Q 3050 2419 3304 2112 
Q 3559 1806 3559 1356 
Q 3559 666 3084 287 
Q 2609 -91 1734 -91 
Q 1441 -91 1130 -33 
Q 819 25 488 141 
L 488 750 
Q 750 597 1062 519 
Q 1375 441 1716 441 
Q 2309 441 2620 675 
Q 2931 909 2931 1356 
Q 2931 1769 2642 2001 
Q 2353 2234 1838 2234 
L 1294 2234 
L 1294 2753 
L 1863 2753 
Q 2328 2753 2575 2939 
Q 2822 3125 2822 3475 
Q 2822 3834 2567 4026 
Q 2313 4219 1838 4219 
Q 1578 4219 1281 4162 
Q 984 4106 628 3988 
L 628 4550 
Q 988 4650 1302 4700 
Q 1616 4750 1894 4750 
Q 2613 4750 3031 4423 
Q 3450 4097 3450 3541 
Q 3450 3153 3228 2886 
Q 3006 2619 2597 2516 
z
" transform="scale(0.015625)"/>
       </defs>
       <use xlink:href="#DejaVuSans-32"/>
       <use xlink:href="#DejaVuSans-35" x="63.623047"/>
       <use xlink:href="#DejaVuSans-39" x="127.246094"/>
       <use xlink:href="#DejaVuSans-33" x="190.869141"/>
      </g>
     </g>
    </g>
    <g id="xtick_24">
     <g id="line2d_24">
      <g>
       <use xlink:href="#m9ddbf3395f" x="934.071362" y="124.070507" style="stroke: #000000; stroke-width: 0.8"/>
      </g>
     </g>
     <g id="text_24">
      <!-- 9 -->
      <g transform="translate(933.773051 140.94238) rotate(-45) scale(0.1 -0.1)">
       <use xlink:href="#DejaVuSans-39"/>
      </g>
     </g>
    </g>
    <g id="xtick_25">
     <g id="line2d_25">
      <g>
       <use xlink:href="#m9ddbf3395f" x="972.190569" y="124.070507" style="stroke: #000000; stroke-width: 0.8"/>
      </g>
     </g>
     <g id="text_25">
      <!-- June -->
      <g transform="translate(966.442012 151.842873) rotate(-45) scale(0.1 -0.1)">
       <defs>
        <path id="DejaVuSans-4a" d="M 628 4666 
L 1259 4666 
L 1259 325 
Q 1259 -519 939 -900 
Q 619 -1281 -91 -1281 
L -331 -1281 
L -331 -750 
L -134 -750 
Q 284 -750 456 -515 
Q 628 -281 628 325 
L 628 4666 
z
" transform="scale(0.015625)"/>
       </defs>
       <use xlink:href="#DejaVuSans-4a"/>
       <use xlink:href="#DejaVuSans-75" x="29.492188"/>
       <use xlink:href="#DejaVuSans-6e" x="92.871094"/>
       <use xlink:href="#DejaVuSans-65" x="156.25"/>
      </g>
     </g>
    </g>
   </g>
   <g id="matplotlib.axis_2">
    <g id="ytick_1">
     <g id="line2d_26">
      <defs>
       <path id="m3ea99fdf43" d="M 0 0 
L -3.5 0 
" style="stroke: #000000; stroke-width: 0.8"/>
      </defs>
      <g>
       <use xlink:href="#m3ea99fdf43" x="38.27" y="124.070507" style="stroke: #000000; stroke-width: 0.8"/>
      </g>
     </g>
     <g id="text_26">
      <!-- 0 -->
      <g transform="translate(24.9075 127.869725) scale(0.1 -0.1)">
       <use xlink:href="#DejaVuSans-30"/>
      </g>
     </g>
    </g>
    <g id="ytick_2">
     <g id="line2d_27">
      <g>
       <use xlink:href="#m3ea99fdf43" x="38.27" y="97.62411" style="stroke: #000000; stroke-width: 0.8"/>
      </g>
     </g>
     <g id="text_27">
      <!-- 2 -->
      <g transform="translate(24.9075 101.423329) scale(0.1 -0.1)">
       <use xlink:href="#DejaVuSans-32"/>
      </g>
     </g>
    </g>
    <g id="ytick_3">
     <g id="line2d_28">
      <g>
       <use xlink:href="#m3ea99fdf43" x="38.27" y="71.177714" style="stroke: #000000; stroke-width: 0.8"/>
      </g>
     </g>
     <g id="text_28">
      <!-- 4 -->
      <g transform="translate(24.9075 74.976933) scale(0.1 -0.1)">
       <use xlink:href="#DejaVuSans-34"/>
      </g>
     </g>
    </g>
    <g id="ytick_4">
     <g id="line2d_29">
      <g>
       <use xlink:href="#m3ea99fdf43" x="38.27" y="44.731318" style="stroke: #000000; stroke-width: 0.8"/>
      </g>
     </g>
     <g id="text_29">
      <!-- 6 -->
      <g transform="translate(24.9075 48.530536) scale(0.1 -0.1)">
       <use xlink:href="#DejaVuSans-36"/>
      </g>
     </g>
    </g>
    <g id="text_30">
     <!-- Count -->
     <g transform="translate(18.827813 90.323691) rotate(-90) scale(0.1 -0.1)">
      <defs>
       <path id="DejaVuSans-43" d="M 4122 4306 
L 4122 3641 
Q 3803 3938 3442 4084 
Q 3081 4231 2675 4231 
Q 1875 4231 1450 3742 
Q 1025 3253 1025 2328 
Q 1025 1406 1450 917 
Q 1875 428 2675 428 
Q 3081 428 3442 575 
Q 3803 722 4122 1019 
L 4122 359 
Q 3791 134 3420 21 
Q 3050 -91 2638 -91 
Q 1578 -91 968 557 
Q 359 1206 359 2328 
Q 359 3453 968 4101 
Q 1578 4750 2638 4750 
Q 3056 4750 3426 4639 
Q 3797 4528 4122 4306 
z
" transform="scale(0.015625)"/>
      </defs>
      <use xlink:href="#DejaVuSans-43"/>
      <use xlink:href="#DejaVuSans-6f" x="69.824219"/>
      <use xlink:href="#DejaVuSans-75" x="131.005859"/>
      <use xlink:href="#DejaVuSans-6e" x="194.384766"/>
      <use xlink:href="#DejaVuSans-74" x="257.763672"/>
     </g>
    </g>
   </g>
   <g id="patch_28">
    <path d="M 38.27 124.070507 
L 38.27 26.88 
" style="fill: none; stroke: #000000; stroke-width: 0.8; stroke-linejoin: miter; stroke-linecap: square"/>
   </g>
   <g id="patch_29">
    <path d="M 991.250172 124.070507 
L 991.250172 26.88 
" style="fill: none; stroke: #000000; stroke-width: 0.8; stroke-linejoin: miter; stroke-linecap: square"/>
   </g>
   <g id="patch_30">
    <path d="M 38.27 124.070507 
L 991.250172 124.070507 
" style="fill: none; stroke: #000000; stroke-width: 0.8; stroke-linejoin: miter; stroke-linecap: square"/>
   </g>
   <g id="patch_31">
    <path d="M 38.27 26.88 
L 991.250172 26.88 
" style="fill: none; stroke: #000000; stroke-width: 0.8; stroke-linejoin: miter; stroke-linecap: square"/>
   </g>
   <g id="text_31">
    <!-- Top 25 DATE in World War II (1939-1945) for 29 movies -->
    <g transform="translate(349.601649 20.88) scale(0.12 -0.12)">
     <defs>
      <path id="DejaVuSans-20" transform="scale(0.015625)"/>
      <path id="DejaVuSans-44" d="M 1259 4147 
L 1259 519 
L 2022 519 
Q 2988 519 3436 956 
Q 3884 1394 3884 2338 
Q 3884 3275 3436 3711 
Q 2988 4147 2022 4147 
L 1259 4147 
z
M 628 4666 
L 1925 4666 
Q 3281 4666 3915 4102 
Q 4550 3538 4550 2338 
Q 4550 1131 3912 565 
Q 3275 0 1925 0 
L 628 0 
L 628 4666 
z
" transform="scale(0.015625)"/>
      <path id="DejaVuSans-41" d="M 2188 4044 
L 1331 1722 
L 3047 1722 
L 2188 4044 
z
M 1831 4666 
L 2547 4666 
L 4325 0 
L 3669 0 
L 3244 1197 
L 1141 1197 
L 716 0 
L 50 0 
L 1831 4666 
z
" transform="scale(0.015625)"/>
      <path id="DejaVuSans-45" d="M 628 4666 
L 3578 4666 
L 3578 4134 
L 1259 4134 
L 1259 2753 
L 3481 2753 
L 3481 2222 
L 1259 2222 
L 1259 531 
L 3634 531 
L 3634 0 
L 628 0 
L 628 4666 
z
" transform="scale(0.015625)"/>
      <path id="DejaVuSans-57" d="M 213 4666 
L 850 4666 
L 1831 722 
L 2809 4666 
L 3519 4666 
L 4500 722 
L 5478 4666 
L 6119 4666 
L 4947 0 
L 4153 0 
L 3169 4050 
L 2175 0 
L 1381 0 
L 213 4666 
z
" transform="scale(0.015625)"/>
      <path id="DejaVuSans-49" d="M 628 4666 
L 1259 4666 
L 1259 0 
L 628 0 
L 628 4666 
z
" transform="scale(0.015625)"/>
      <path id="DejaVuSans-28" d="M 1984 4856 
Q 1566 4138 1362 3434 
Q 1159 2731 1159 2009 
Q 1159 1288 1364 580 
Q 1569 -128 1984 -844 
L 1484 -844 
Q 1016 -109 783 600 
Q 550 1309 550 2009 
Q 550 2706 781 3412 
Q 1013 4119 1484 4856 
L 1984 4856 
z
" transform="scale(0.015625)"/>
      <path id="DejaVuSans-2d" d="M 313 2009 
L 1997 2009 
L 1997 1497 
L 313 1497 
L 313 2009 
z
" transform="scale(0.015625)"/>
      <path id="DejaVuSans-29" d="M 513 4856 
L 1013 4856 
Q 1481 4119 1714 3412 
Q 1947 2706 1947 2009 
Q 1947 1309 1714 600 
Q 1481 -109 1013 -844 
L 513 -844 
Q 928 -128 1133 580 
Q 1338 1288 1338 2009 
Q 1338 2731 1133 3434 
Q 928 4138 513 4856 
z
" transform="scale(0.015625)"/>
      <path id="DejaVuSans-6d" d="M 3328 2828 
Q 3544 3216 3844 3400 
Q 4144 3584 4550 3584 
Q 5097 3584 5394 3201 
Q 5691 2819 5691 2113 
L 5691 0 
L 5113 0 
L 5113 2094 
Q 5113 2597 4934 2840 
Q 4756 3084 4391 3084 
Q 3944 3084 3684 2787 
Q 3425 2491 3425 1978 
L 3425 0 
L 2847 0 
L 2847 2094 
Q 2847 2600 2669 2842 
Q 2491 3084 2119 3084 
Q 1678 3084 1418 2786 
Q 1159 2488 1159 1978 
L 1159 0 
L 581 0 
L 581 3500 
L 1159 3500 
L 1159 2956 
Q 1356 3278 1631 3431 
Q 1906 3584 2284 3584 
Q 2666 3584 2933 3390 
Q 3200 3197 3328 2828 
z
" transform="scale(0.015625)"/>
     </defs>
     <use xlink:href="#DejaVuSans-54"/>
     <use xlink:href="#DejaVuSans-6f" x="44.083984"/>
     <use xlink:href="#DejaVuSans-70" x="105.265625"/>
     <use xlink:href="#DejaVuSans-20" x="168.742188"/>
     <use xlink:href="#DejaVuSans-32" x="200.529297"/>
     <use xlink:href="#DejaVuSans-35" x="264.152344"/>
     <use xlink:href="#DejaVuSans-20" x="327.775391"/>
     <use xlink:href="#DejaVuSans-44" x="359.5625"/>
     <use xlink:href="#DejaVuSans-41" x="434.814453"/>
     <use xlink:href="#DejaVuSans-54" x="495.472656"/>
     <use xlink:href="#DejaVuSans-45" x="556.556641"/>
     <use xlink:href="#DejaVuSans-20" x="619.740234"/>
     <use xlink:href="#DejaVuSans-69" x="651.527344"/>
     <use xlink:href="#DejaVuSans-6e" x="679.310547"/>
     <use xlink:href="#DejaVuSans-20" x="742.689453"/>
     <use xlink:href="#DejaVuSans-57" x="774.476562"/>
     <use xlink:href="#DejaVuSans-6f" x="867.478516"/>
     <use xlink:href="#DejaVuSans-72" x="928.660156"/>
     <use xlink:href="#DejaVuSans-6c" x="969.773438"/>
     <use xlink:href="#DejaVuSans-64" x="997.556641"/>
     <use xlink:href="#DejaVuSans-20" x="1061.033203"/>
     <use xlink:href="#DejaVuSans-57" x="1092.820312"/>
     <use xlink:href="#DejaVuSans-61" x="1185.322266"/>
     <use xlink:href="#DejaVuSans-72" x="1246.601562"/>
     <use xlink:href="#DejaVuSans-20" x="1287.714844"/>
     <use xlink:href="#DejaVuSans-49" x="1319.501953"/>
     <use xlink:href="#DejaVuSans-49" x="1348.994141"/>
     <use xlink:href="#DejaVuSans-20" x="1378.486328"/>
     <use xlink:href="#DejaVuSans-28" x="1410.273438"/>
     <use xlink:href="#DejaVuSans-31" x="1449.287109"/>
     <use xlink:href="#DejaVuSans-39" x="1512.910156"/>
     <use xlink:href="#DejaVuSans-33" x="1576.533203"/>
     <use xlink:href="#DejaVuSans-39" x="1640.15625"/>
     <use xlink:href="#DejaVuSans-2d" x="1703.779297"/>
     <use xlink:href="#DejaVuSans-31" x="1739.863281"/>
     <use xlink:href="#DejaVuSans-39" x="1803.486328"/>
     <use xlink:href="#DejaVuSans-34" x="1867.109375"/>
     <use xlink:href="#DejaVuSans-35" x="1930.732422"/>
     <use xlink:href="#DejaVuSans-29" x="1994.355469"/>
     <use xlink:href="#DejaVuSans-20" x="2033.369141"/>
     <use xlink:href="#DejaVuSans-66" x="2065.15625"/>
     <use xlink:href="#DejaVuSans-6f" x="2100.361328"/>
     <use xlink:href="#DejaVuSans-72" x="2161.542969"/>
     <use xlink:href="#DejaVuSans-20" x="2202.65625"/>
     <use xlink:href="#DejaVuSans-32" x="2234.443359"/>
     <use xlink:href="#DejaVuSans-39" x="2298.066406"/>
     <use xlink:href="#DejaVuSans-20" x="2361.689453"/>
     <use xlink:href="#DejaVuSans-6d" x="2393.476562"/>
     <use xlink:href="#DejaVuSans-6f" x="2490.888672"/>
     <use xlink:href="#DejaVuSans-76" x="2552.070312"/>
     <use xlink:href="#DejaVuSans-69" x="2611.25"/>
     <use xlink:href="#DejaVuSans-65" x="2639.033203"/>
     <use xlink:href="#DejaVuSans-73" x="2700.556641"/>
    </g>
   </g>
  </g>
  <g id="axes_2">
   <g id="patch_32">
    <path d="M 38.27 298.670507 
L 991.250172 298.670507 
L 991.250172 201.48 
L 38.27 201.48 
z
" style="fill: #ffffff"/>
   </g>
   <g id="patch_33">
    <path d="M 47.799802 298.670507 
L 66.859405 298.670507 
L 66.859405 206.108119 
L 47.799802 206.108119 
z
" clip-path="url(#pe849b54462)" style="fill: #fde725"/>
   </g>
   <g id="patch_34">
    <path d="M 85.919009 298.670507 
L 104.978612 298.670507 
L 104.978612 221.535184 
L 85.919009 221.535184 
z
" clip-path="url(#pe849b54462)" style="fill: #90d743"/>
   </g>
   <g id="patch_35">
    <path d="M 124.038215 298.670507 
L 143.097819 298.670507 
L 143.097819 236.962248 
L 124.038215 236.962248 
z
" clip-path="url(#pe849b54462)" style="fill: #35b779"/>
   </g>
   <g id="patch_36">
    <path d="M 162.157422 298.670507 
L 181.217026 298.670507 
L 181.217026 252.389313 
L 162.157422 252.389313 
z
" clip-path="url(#pe849b54462)" style="fill: #21918c"/>
   </g>
   <g id="patch_37">
    <path d="M 200.276629 298.670507 
L 219.336233 298.670507 
L 219.336233 252.389313 
L 200.276629 252.389313 
z
" clip-path="url(#pe849b54462)" style="fill: #21918c"/>
   </g>
   <g id="patch_38">
    <path d="M 238.395836 298.670507 
L 257.45544 298.670507 
L 257.45544 267.816377 
L 238.395836 267.816377 
z
" clip-path="url(#pe849b54462)" style="fill: #31688e"/>
   </g>
   <g id="patch_39">
    <path d="M 276.515043 298.670507 
L 295.574646 298.670507 
L 295.574646 267.816377 
L 276.515043 267.816377 
z
" clip-path="url(#pe849b54462)" style="fill: #31688e"/>
   </g>
   <g id="patch_40">
    <path d="M 314.63425 298.670507 
L 333.693853 298.670507 
L 333.693853 283.243442 
L 314.63425 283.243442 
z
" clip-path="url(#pe849b54462)" style="fill: #443983"/>
   </g>
   <g id="patch_41">
    <path d="M 352.753457 298.670507 
L 371.81306 298.670507 
L 371.81306 283.243442 
L 352.753457 283.243442 
z
" clip-path="url(#pe849b54462)" style="fill: #443983"/>
   </g>
   <g id="patch_42">
    <path d="M 390.872664 298.670507 
L 409.932267 298.670507 
L 409.932267 283.243442 
L 390.872664 283.243442 
z
" clip-path="url(#pe849b54462)" style="fill: #443983"/>
   </g>
   <g id="patch_43">
    <path d="M 428.991871 298.670507 
L 448.051474 298.670507 
L 448.051474 283.243442 
L 428.991871 283.243442 
z
" clip-path="url(#pe849b54462)" style="fill: #443983"/>
   </g>
   <g id="patch_44">
    <path d="M 467.111077 298.670507 
L 486.170681 298.670507 
L 486.170681 283.243442 
L 467.111077 283.243442 
z
" clip-path="url(#pe849b54462)" style="fill: #443983"/>
   </g>
   <g id="patch_45">
    <path d="M 505.230284 298.670507 
L 524.289888 298.670507 
L 524.289888 283.243442 
L 505.230284 283.243442 
z
" clip-path="url(#pe849b54462)" style="fill: #443983"/>
   </g>
   <g id="patch_46">
    <path d="M 543.349491 298.670507 
L 562.409095 298.670507 
L 562.409095 283.243442 
L 543.349491 283.243442 
z
" clip-path="url(#pe849b54462)" style="fill: #443983"/>
   </g>
   <g id="patch_47">
    <path d="M 581.468698 298.670507 
L 600.528302 298.670507 
L 600.528302 283.243442 
L 581.468698 283.243442 
z
" clip-path="url(#pe849b54462)" style="fill: #443983"/>
   </g>
   <g id="patch_48">
    <path d="M 619.587905 298.670507 
L 638.647508 298.670507 
L 638.647508 283.243442 
L 619.587905 283.243442 
z
" clip-path="url(#pe849b54462)" style="fill: #443983"/>
   </g>
   <g id="patch_49">
    <path d="M 657.707112 298.670507 
L 676.766715 298.670507 
L 676.766715 283.243442 
L 657.707112 283.243442 
z
" clip-path="url(#pe849b54462)" style="fill: #443983"/>
   </g>
   <g id="patch_50">
    <path d="M 695.826319 298.670507 
L 714.885922 298.670507 
L 714.885922 283.243442 
L 695.826319 283.243442 
z
" clip-path="url(#pe849b54462)" style="fill: #443983"/>
   </g>
   <g id="patch_51">
    <path d="M 733.945526 298.670507 
L 753.005129 298.670507 
L 753.005129 283.243442 
L 733.945526 283.243442 
z
" clip-path="url(#pe849b54462)" style="fill: #443983"/>
   </g>
   <g id="patch_52">
    <path d="M 772.064733 298.670507 
L 791.124336 298.670507 
L 791.124336 283.243442 
L 772.064733 283.243442 
z
" clip-path="url(#pe849b54462)" style="fill: #443983"/>
   </g>
   <g id="patch_53">
    <path d="M 810.183939 298.670507 
L 829.243543 298.670507 
L 829.243543 283.243442 
L 810.183939 283.243442 
z
" clip-path="url(#pe849b54462)" style="fill: #443983"/>
   </g>
   <g id="patch_54">
    <path d="M 848.303146 298.670507 
L 867.36275 298.670507 
L 867.36275 283.243442 
L 848.303146 283.243442 
z
" clip-path="url(#pe849b54462)" style="fill: #443983"/>
   </g>
   <g id="patch_55">
    <path d="M 886.422353 298.670507 
L 905.481957 298.670507 
L 905.481957 283.243442 
L 886.422353 283.243442 
z
" clip-path="url(#pe849b54462)" style="fill: #443983"/>
   </g>
   <g id="patch_56">
    <path d="M 924.54156 298.670507 
L 943.601164 298.670507 
L 943.601164 283.243442 
L 924.54156 283.243442 
z
" clip-path="url(#pe849b54462)" style="fill: #443983"/>
   </g>
   <g id="patch_57">
    <path d="M 962.660767 298.670507 
L 981.72037 298.670507 
L 981.72037 283.243442 
L 962.660767 283.243442 
z
" clip-path="url(#pe849b54462)" style="fill: #443983"/>
   </g>
   <g id="matplotlib.axis_3">
    <g id="xtick_26">
     <g id="line2d_30">
      <g>
       <use xlink:href="#m9ddbf3395f" x="57.329603" y="298.670507" style="stroke: #000000; stroke-width: 0.8"/>
      </g>
     </g>
     <g id="text_32">
      <!-- now -->
      <g transform="translate(51.985423 325.63412) rotate(-45) scale(0.1 -0.1)">
       <use xlink:href="#DejaVuSans-6e"/>
       <use xlink:href="#DejaVuSans-6f" x="63.378906"/>
       <use xlink:href="#DejaVuSans-77" x="124.560547"/>
      </g>
     </g>
    </g>
    <g id="xtick_27">
     <g id="line2d_31">
      <g>
       <use xlink:href="#m9ddbf3395f" x="95.44881" y="298.670507" style="stroke: #000000; stroke-width: 0.8"/>
      </g>
     </g>
     <g id="text_33">
      <!-- the -->
      <g transform="translate(91.597841 322.647698) rotate(-45) scale(0.1 -0.1)">
       <use xlink:href="#DejaVuSans-74"/>
       <use xlink:href="#DejaVuSans-68" x="39.208984"/>
       <use xlink:href="#DejaVuSans-65" x="102.587891"/>
      </g>
     </g>
    </g>
    <g id="xtick_28">
     <g id="line2d_32">
      <g>
       <use xlink:href="#m9ddbf3395f" x="133.568017" y="298.670507" style="stroke: #000000; stroke-width: 0.8"/>
      </g>
     </g>
     <g id="text_34">
      <!-- Now -->
      <g transform="translate(127.81946 326.442873) rotate(-45) scale(0.1 -0.1)">
       <use xlink:href="#DejaVuSans-4e"/>
       <use xlink:href="#DejaVuSans-6f" x="74.804688"/>
       <use xlink:href="#DejaVuSans-77" x="135.986328"/>
      </g>
     </g>
    </g>
    <g id="xtick_29">
     <g id="line2d_33">
      <g>
       <use xlink:href="#m9ddbf3395f" x="171.687224" y="298.670507" style="stroke: #000000; stroke-width: 0.8"/>
      </g>
     </g>
     <g id="text_35">
      <!-- 1942 -->
      <g transform="translate(164.640463 329.039281) rotate(-45) scale(0.1 -0.1)">
       <use xlink:href="#DejaVuSans-31"/>
       <use xlink:href="#DejaVuSans-39" x="63.623047"/>
       <use xlink:href="#DejaVuSans-34" x="127.246094"/>
       <use xlink:href="#DejaVuSans-32" x="190.869141"/>
      </g>
     </g>
    </g>
    <g id="xtick_30">
     <g id="line2d_34">
      <g>
       <use xlink:href="#m9ddbf3395f" x="209.806431" y="298.670507" style="stroke: #000000; stroke-width: 0.8"/>
      </g>
     </g>
     <g id="text_36">
      <!-- recently -->
      <g transform="translate(197.387316 339.783989) rotate(-45) scale(0.1 -0.1)">
       <use xlink:href="#DejaVuSans-72"/>
       <use xlink:href="#DejaVuSans-65" x="38.863281"/>
       <use xlink:href="#DejaVuSans-63" x="100.386719"/>
       <use xlink:href="#DejaVuSans-65" x="155.367188"/>
       <use xlink:href="#DejaVuSans-6e" x="216.890625"/>
       <use xlink:href="#DejaVuSans-74" x="280.269531"/>
       <use xlink:href="#DejaVuSans-6c" x="319.478516"/>
       <use xlink:href="#DejaVuSans-79" x="347.261719"/>
      </g>
     </g>
    </g>
    <g id="xtick_31">
     <g id="line2d_35">
      <g>
       <use xlink:href="#m9ddbf3395f" x="247.925638" y="298.670507" style="stroke: #000000; stroke-width: 0.8"/>
      </g>
     </g>
     <g id="text_37">
      <!-- Once -->
      <g transform="translate(240.733589 329.329858) rotate(-45) scale(0.1 -0.1)">
       <use xlink:href="#DejaVuSans-4f"/>
       <use xlink:href="#DejaVuSans-6e" x="78.710938"/>
       <use xlink:href="#DejaVuSans-63" x="142.089844"/>
       <use xlink:href="#DejaVuSans-65" x="197.070312"/>
      </g>
     </g>
    </g>
    <g id="xtick_32">
     <g id="line2d_36">
      <g>
       <use xlink:href="#m9ddbf3395f" x="286.044845" y="298.670507" style="stroke: #000000; stroke-width: 0.8"/>
      </g>
     </g>
     <g id="text_38">
      <!-- , -->
      <g transform="translate(286.872381 313.290687) rotate(-45) scale(0.1 -0.1)">
       <defs>
        <path id="DejaVuSans-2c" d="M 750 794 
L 1409 794 
L 1409 256 
L 897 -744 
L 494 -744 
L 750 256 
L 750 794 
z
" transform="scale(0.015625)"/>
       </defs>
       <use xlink:href="#DejaVuSans-2c"/>
      </g>
     </g>
    </g>
    <g id="xtick_33">
     <g id="line2d_37">
      <g>
       <use xlink:href="#m9ddbf3395f" x="324.164052" y="298.670507" style="stroke: #000000; stroke-width: 0.8"/>
      </g>
     </g>
     <g id="text_39">
      <!-- 1800s -->
      <g transform="translate(315.275498 332.722865) rotate(-45) scale(0.1 -0.1)">
       <defs>
        <path id="DejaVuSans-38" d="M 2034 2216 
Q 1584 2216 1326 1975 
Q 1069 1734 1069 1313 
Q 1069 891 1326 650 
Q 1584 409 2034 409 
Q 2484 409 2743 651 
Q 3003 894 3003 1313 
Q 3003 1734 2745 1975 
Q 2488 2216 2034 2216 
z
M 1403 2484 
Q 997 2584 770 2862 
Q 544 3141 544 3541 
Q 544 4100 942 4425 
Q 1341 4750 2034 4750 
Q 2731 4750 3128 4425 
Q 3525 4100 3525 3541 
Q 3525 3141 3298 2862 
Q 3072 2584 2669 2484 
Q 3125 2378 3379 2068 
Q 3634 1759 3634 1313 
Q 3634 634 3220 271 
Q 2806 -91 2034 -91 
Q 1263 -91 848 271 
Q 434 634 434 1313 
Q 434 1759 690 2068 
Q 947 2378 1403 2484 
z
M 1172 3481 
Q 1172 3119 1398 2916 
Q 1625 2713 2034 2713 
Q 2441 2713 2670 2916 
Q 2900 3119 2900 3481 
Q 2900 3844 2670 4047 
Q 2441 4250 2034 4250 
Q 1625 4250 1398 4047 
Q 1172 3844 1172 3481 
z
" transform="scale(0.015625)"/>
       </defs>
       <use xlink:href="#DejaVuSans-31"/>
       <use xlink:href="#DejaVuSans-38" x="63.623047"/>
       <use xlink:href="#DejaVuSans-30" x="127.246094"/>
       <use xlink:href="#DejaVuSans-30" x="190.869141"/>
       <use xlink:href="#DejaVuSans-73" x="254.492188"/>
      </g>
     </g>
    </g>
    <g id="xtick_34">
     <g id="line2d_38">
      <g>
       <use xlink:href="#m9ddbf3395f" x="362.283259" y="298.670507" style="stroke: #000000; stroke-width: 0.8"/>
      </g>
     </g>
     <g id="text_40">
      <!-- fall -->
      <g transform="translate(358.858762 321.794751) rotate(-45) scale(0.1 -0.1)">
       <use xlink:href="#DejaVuSans-66"/>
       <use xlink:href="#DejaVuSans-61" x="35.205078"/>
       <use xlink:href="#DejaVuSans-6c" x="96.484375"/>
       <use xlink:href="#DejaVuSans-6c" x="124.267578"/>
      </g>
     </g>
    </g>
    <g id="xtick_35">
     <g id="line2d_39">
      <g>
       <use xlink:href="#m9ddbf3395f" x="400.402465" y="298.670507" style="stroke: #000000; stroke-width: 0.8"/>
      </g>
     </g>
     <g id="text_41">
      <!-- 1946 -->
      <g transform="translate(393.355704 329.039281) rotate(-45) scale(0.1 -0.1)">
       <use xlink:href="#DejaVuSans-31"/>
       <use xlink:href="#DejaVuSans-39" x="63.623047"/>
       <use xlink:href="#DejaVuSans-34" x="127.246094"/>
       <use xlink:href="#DejaVuSans-36" x="190.869141"/>
      </g>
     </g>
    </g>
    <g id="xtick_36">
     <g id="line2d_40">
      <g>
       <use xlink:href="#m9ddbf3395f" x="438.521672" y="298.670507" style="stroke: #000000; stroke-width: 0.8"/>
      </g>
     </g>
     <g id="text_42">
      <!-- Seconds -->
      <g transform="translate(425.618631 340.751842) rotate(-45) scale(0.1 -0.1)">
       <defs>
        <path id="DejaVuSans-53" d="M 3425 4513 
L 3425 3897 
Q 3066 4069 2747 4153 
Q 2428 4238 2131 4238 
Q 1616 4238 1336 4038 
Q 1056 3838 1056 3469 
Q 1056 3159 1242 3001 
Q 1428 2844 1947 2747 
L 2328 2669 
Q 3034 2534 3370 2195 
Q 3706 1856 3706 1288 
Q 3706 609 3251 259 
Q 2797 -91 1919 -91 
Q 1588 -91 1214 -16 
Q 841 59 441 206 
L 441 856 
Q 825 641 1194 531 
Q 1563 422 1919 422 
Q 2459 422 2753 634 
Q 3047 847 3047 1241 
Q 3047 1584 2836 1778 
Q 2625 1972 2144 2069 
L 1759 2144 
Q 1053 2284 737 2584 
Q 422 2884 422 3419 
Q 422 4038 858 4394 
Q 1294 4750 2059 4750 
Q 2388 4750 2728 4690 
Q 3069 4631 3425 4513 
z
" transform="scale(0.015625)"/>
       </defs>
       <use xlink:href="#DejaVuSans-53"/>
       <use xlink:href="#DejaVuSans-65" x="63.476562"/>
       <use xlink:href="#DejaVuSans-63" x="125"/>
       <use xlink:href="#DejaVuSans-6f" x="179.980469"/>
       <use xlink:href="#DejaVuSans-6e" x="241.162109"/>
       <use xlink:href="#DejaVuSans-64" x="304.541016"/>
       <use xlink:href="#DejaVuSans-73" x="368.017578"/>
      </g>
     </g>
    </g>
    <g id="xtick_37">
     <g id="line2d_41">
      <g>
       <use xlink:href="#m9ddbf3395f" x="476.640879" y="298.670507" style="stroke: #000000; stroke-width: 0.8"/>
      </g>
     </g>
     <g id="text_43">
      <!-- October -->
      <g transform="translate(464.442182 339.343152) rotate(-45) scale(0.1 -0.1)">
       <defs>
        <path id="DejaVuSans-62" d="M 3116 1747 
Q 3116 2381 2855 2742 
Q 2594 3103 2138 3103 
Q 1681 3103 1420 2742 
Q 1159 2381 1159 1747 
Q 1159 1113 1420 752 
Q 1681 391 2138 391 
Q 2594 391 2855 752 
Q 3116 1113 3116 1747 
z
M 1159 2969 
Q 1341 3281 1617 3432 
Q 1894 3584 2278 3584 
Q 2916 3584 3314 3078 
Q 3713 2572 3713 1747 
Q 3713 922 3314 415 
Q 2916 -91 2278 -91 
Q 1894 -91 1617 61 
Q 1341 213 1159 525 
L 1159 0 
L 581 0 
L 581 4863 
L 1159 4863 
L 1159 2969 
z
" transform="scale(0.015625)"/>
       </defs>
       <use xlink:href="#DejaVuSans-4f"/>
       <use xlink:href="#DejaVuSans-63" x="78.710938"/>
       <use xlink:href="#DejaVuSans-74" x="133.691406"/>
       <use xlink:href="#DejaVuSans-6f" x="172.900391"/>
       <use xlink:href="#DejaVuSans-62" x="234.082031"/>
       <use xlink:href="#DejaVuSans-65" x="297.558594"/>
       <use xlink:href="#DejaVuSans-72" x="359.082031"/>
      </g>
     </g>
    </g>
    <g id="xtick_38">
     <g id="line2d_42">
      <g>
       <use xlink:href="#m9ddbf3395f" x="514.760086" y="298.670507" style="stroke: #000000; stroke-width: 0.8"/>
      </g>
     </g>
     <g id="text_44">
      <!-- later -->
      <g transform="translate(508.54749 327.370951) rotate(-45) scale(0.1 -0.1)">
       <use xlink:href="#DejaVuSans-6c"/>
       <use xlink:href="#DejaVuSans-61" x="27.783203"/>
       <use xlink:href="#DejaVuSans-74" x="89.0625"/>
       <use xlink:href="#DejaVuSans-65" x="128.271484"/>
       <use xlink:href="#DejaVuSans-72" x="189.794922"/>
      </g>
     </g>
    </g>
    <g id="xtick_39">
     <g id="line2d_43">
      <g>
       <use xlink:href="#m9ddbf3395f" x="552.879293" y="298.670507" style="stroke: #000000; stroke-width: 0.8"/>
      </g>
     </g>
     <g id="text_45">
      <!-- years -->
      <g transform="translate(545.100566 330.503213) rotate(-45) scale(0.1 -0.1)">
       <use xlink:href="#DejaVuSans-79"/>
       <use xlink:href="#DejaVuSans-65" x="59.179688"/>
       <use xlink:href="#DejaVuSans-61" x="120.703125"/>
       <use xlink:href="#DejaVuSans-72" x="181.982422"/>
       <use xlink:href="#DejaVuSans-73" x="223.095703"/>
      </g>
     </g>
    </g>
    <g id="xtick_40">
     <g id="line2d_44">
      <g>
       <use xlink:href="#m9ddbf3395f" x="590.9985" y="298.670507" style="stroke: #000000; stroke-width: 0.8"/>
      </g>
     </g>
     <g id="text_46">
      <!-- week -->
      <g transform="translate(583.660057 329.622644) rotate(-45) scale(0.1 -0.1)">
       <use xlink:href="#DejaVuSans-77"/>
       <use xlink:href="#DejaVuSans-65" x="81.787109"/>
       <use xlink:href="#DejaVuSans-65" x="143.310547"/>
       <use xlink:href="#DejaVuSans-6b" x="204.833984"/>
      </g>
     </g>
    </g>
    <g id="xtick_41">
     <g id="line2d_45">
      <g>
       <use xlink:href="#m9ddbf3395f" x="629.117707" y="298.670507" style="stroke: #000000; stroke-width: 0.8"/>
      </g>
     </g>
     <g id="text_47">
      <!-- 27 -->
      <g transform="translate(626.569913 320.041347) rotate(-45) scale(0.1 -0.1)">
       <defs>
        <path id="DejaVuSans-37" d="M 525 4666 
L 3525 4666 
L 3525 4397 
L 1831 0 
L 1172 0 
L 2766 4134 
L 525 4134 
L 525 4666 
z
" transform="scale(0.015625)"/>
       </defs>
       <use xlink:href="#DejaVuSans-32"/>
       <use xlink:href="#DejaVuSans-37" x="63.623047"/>
      </g>
     </g>
    </g>
    <g id="xtick_42">
     <g id="line2d_46">
      <g>
       <use xlink:href="#m9ddbf3395f" x="667.236914" y="298.670507" style="stroke: #000000; stroke-width: 0.8"/>
      </g>
     </g>
     <g id="text_48">
      <!-- March -->
      <g transform="translate(658.412442 332.594702) rotate(-45) scale(0.1 -0.1)">
       <defs>
        <path id="DejaVuSans-4d" d="M 628 4666 
L 1569 4666 
L 2759 1491 
L 3956 4666 
L 4897 4666 
L 4897 0 
L 4281 0 
L 4281 4097 
L 3078 897 
L 2444 897 
L 1241 4097 
L 1241 0 
L 628 0 
L 628 4666 
z
" transform="scale(0.015625)"/>
       </defs>
       <use xlink:href="#DejaVuSans-4d"/>
       <use xlink:href="#DejaVuSans-61" x="86.279297"/>
       <use xlink:href="#DejaVuSans-72" x="147.558594"/>
       <use xlink:href="#DejaVuSans-63" x="186.421875"/>
       <use xlink:href="#DejaVuSans-68" x="241.402344"/>
      </g>
     </g>
    </g>
    <g id="xtick_43">
     <g id="line2d_47">
      <g>
       <use xlink:href="#m9ddbf3395f" x="705.35612" y="298.670507" style="stroke: #000000; stroke-width: 0.8"/>
      </g>
     </g>
     <g id="text_49">
      <!-- currently -->
      <g transform="translate(691.480255 342.69749) rotate(-45) scale(0.1 -0.1)">
       <use xlink:href="#DejaVuSans-63"/>
       <use xlink:href="#DejaVuSans-75" x="54.980469"/>
       <use xlink:href="#DejaVuSans-72" x="118.359375"/>
       <use xlink:href="#DejaVuSans-72" x="157.722656"/>
       <use xlink:href="#DejaVuSans-65" x="196.585938"/>
       <use xlink:href="#DejaVuSans-6e" x="258.109375"/>
       <use xlink:href="#DejaVuSans-74" x="321.488281"/>
       <use xlink:href="#DejaVuSans-6c" x="360.697266"/>
       <use xlink:href="#DejaVuSans-79" x="388.480469"/>
      </g>
     </g>
    </g>
    <g id="xtick_44">
     <g id="line2d_48">
      <g>
       <use xlink:href="#m9ddbf3395f" x="743.475327" y="298.670507" style="stroke: #000000; stroke-width: 0.8"/>
      </g>
     </g>
     <g id="text_50">
      <!-- 1943 -->
      <g transform="translate(736.428566 329.039281) rotate(-45) scale(0.1 -0.1)">
       <use xlink:href="#DejaVuSans-31"/>
       <use xlink:href="#DejaVuSans-39" x="63.623047"/>
       <use xlink:href="#DejaVuSans-34" x="127.246094"/>
       <use xlink:href="#DejaVuSans-33" x="190.869141"/>
      </g>
     </g>
    </g>
    <g id="xtick_45">
     <g id="line2d_49">
      <g>
       <use xlink:href="#m9ddbf3395f" x="781.594534" y="298.670507" style="stroke: #000000; stroke-width: 0.8"/>
      </g>
     </g>
     <g id="text_51">
      <!-- future -->
      <g transform="translate(772.884415 332.365997) rotate(-45) scale(0.1 -0.1)">
       <use xlink:href="#DejaVuSans-66"/>
       <use xlink:href="#DejaVuSans-75" x="35.205078"/>
       <use xlink:href="#DejaVuSans-74" x="98.583984"/>
       <use xlink:href="#DejaVuSans-75" x="137.792969"/>
       <use xlink:href="#DejaVuSans-72" x="201.171875"/>
       <use xlink:href="#DejaVuSans-65" x="240.035156"/>
      </g>
     </g>
    </g>
    <g id="xtick_46">
     <g id="line2d_50">
      <g>
       <use xlink:href="#m9ddbf3395f" x="819.713741" y="298.670507" style="stroke: #000000; stroke-width: 0.8"/>
      </g>
     </g>
     <g id="text_52">
      <!-- once -->
      <g transform="translate(813.141515 328.090211) rotate(-45) scale(0.1 -0.1)">
       <use xlink:href="#DejaVuSans-6f"/>
       <use xlink:href="#DejaVuSans-6e" x="61.181641"/>
       <use xlink:href="#DejaVuSans-63" x="124.560547"/>
       <use xlink:href="#DejaVuSans-65" x="179.541016"/>
      </g>
     </g>
    </g>
    <g id="xtick_47">
     <g id="line2d_51">
      <g>
       <use xlink:href="#m9ddbf3395f" x="857.832948" y="298.670507" style="stroke: #000000; stroke-width: 0.8"/>
      </g>
     </g>
     <g id="text_53">
      <!-- previously -->
      <g transform="translate(841.594904 347.421847) rotate(-45) scale(0.1 -0.1)">
       <use xlink:href="#DejaVuSans-70"/>
       <use xlink:href="#DejaVuSans-72" x="63.476562"/>
       <use xlink:href="#DejaVuSans-65" x="102.339844"/>
       <use xlink:href="#DejaVuSans-76" x="163.863281"/>
       <use xlink:href="#DejaVuSans-69" x="223.042969"/>
       <use xlink:href="#DejaVuSans-6f" x="250.826172"/>
       <use xlink:href="#DejaVuSans-75" x="312.007812"/>
       <use xlink:href="#DejaVuSans-73" x="375.386719"/>
       <use xlink:href="#DejaVuSans-6c" x="427.486328"/>
       <use xlink:href="#DejaVuSans-79" x="455.269531"/>
      </g>
     </g>
    </g>
    <g id="xtick_48">
     <g id="line2d_52">
      <g>
       <use xlink:href="#m9ddbf3395f" x="895.952155" y="298.670507" style="stroke: #000000; stroke-width: 0.8"/>
      </g>
     </g>
     <g id="text_54">
      <!-- day -->
      <g transform="translate(891.399603 324.050863) rotate(-45) scale(0.1 -0.1)">
       <use xlink:href="#DejaVuSans-64"/>
       <use xlink:href="#DejaVuSans-61" x="63.476562"/>
       <use xlink:href="#DejaVuSans-79" x="124.755859"/>
      </g>
     </g>
    </g>
    <g id="xtick_49">
     <g id="line2d_53">
      <g>
       <use xlink:href="#m9ddbf3395f" x="934.071362" y="298.670507" style="stroke: #000000; stroke-width: 0.8"/>
      </g>
     </g>
     <g id="text_55">
      <!-- Sunday -->
      <g transform="translate(922.793009 337.502465) rotate(-45) scale(0.1 -0.1)">
       <use xlink:href="#DejaVuSans-53"/>
       <use xlink:href="#DejaVuSans-75" x="63.476562"/>
       <use xlink:href="#DejaVuSans-6e" x="126.855469"/>
       <use xlink:href="#DejaVuSans-64" x="190.234375"/>
       <use xlink:href="#DejaVuSans-61" x="253.710938"/>
       <use xlink:href="#DejaVuSans-79" x="314.990234"/>
      </g>
     </g>
    </g>
    <g id="xtick_50">
     <g id="line2d_54">
      <g>
       <use xlink:href="#m9ddbf3395f" x="972.190569" y="298.670507" style="stroke: #000000; stroke-width: 0.8"/>
      </g>
     </g>
     <g id="text_56">
      <!-- Previously -->
      <g transform="translate(956.127091 347.072713) rotate(-45) scale(0.1 -0.1)">
       <defs>
        <path id="DejaVuSans-50" d="M 1259 4147 
L 1259 2394 
L 2053 2394 
Q 2494 2394 2734 2622 
Q 2975 2850 2975 3272 
Q 2975 3691 2734 3919 
Q 2494 4147 2053 4147 
L 1259 4147 
z
M 628 4666 
L 2053 4666 
Q 2838 4666 3239 4311 
Q 3641 3956 3641 3272 
Q 3641 2581 3239 2228 
Q 2838 1875 2053 1875 
L 1259 1875 
L 1259 0 
L 628 0 
L 628 4666 
z
" transform="scale(0.015625)"/>
       </defs>
       <use xlink:href="#DejaVuSans-50"/>
       <use xlink:href="#DejaVuSans-72" x="58.552734"/>
       <use xlink:href="#DejaVuSans-65" x="97.416016"/>
       <use xlink:href="#DejaVuSans-76" x="158.939453"/>
       <use xlink:href="#DejaVuSans-69" x="218.119141"/>
       <use xlink:href="#DejaVuSans-6f" x="245.902344"/>
       <use xlink:href="#DejaVuSans-75" x="307.083984"/>
       <use xlink:href="#DejaVuSans-73" x="370.462891"/>
       <use xlink:href="#DejaVuSans-6c" x="422.5625"/>
       <use xlink:href="#DejaVuSans-79" x="450.345703"/>
      </g>
     </g>
    </g>
   </g>
   <g id="matplotlib.axis_4">
    <g id="ytick_5">
     <g id="line2d_55">
      <g>
       <use xlink:href="#m3ea99fdf43" x="38.27" y="298.670507" style="stroke: #000000; stroke-width: 0.8"/>
      </g>
     </g>
     <g id="text_57">
      <!-- 0 -->
      <g transform="translate(24.9075 302.469725) scale(0.1 -0.1)">
       <use xlink:href="#DejaVuSans-30"/>
      </g>
     </g>
    </g>
    <g id="ytick_6">
     <g id="line2d_56">
      <g>
       <use xlink:href="#m3ea99fdf43" x="38.27" y="267.816377" style="stroke: #000000; stroke-width: 0.8"/>
      </g>
     </g>
     <g id="text_58">
      <!-- 2 -->
      <g transform="translate(24.9075 271.615596) scale(0.1 -0.1)">
       <use xlink:href="#DejaVuSans-32"/>
      </g>
     </g>
    </g>
    <g id="ytick_7">
     <g id="line2d_57">
      <g>
       <use xlink:href="#m3ea99fdf43" x="38.27" y="236.962248" style="stroke: #000000; stroke-width: 0.8"/>
      </g>
     </g>
     <g id="text_59">
      <!-- 4 -->
      <g transform="translate(24.9075 240.761467) scale(0.1 -0.1)">
       <use xlink:href="#DejaVuSans-34"/>
      </g>
     </g>
    </g>
    <g id="ytick_8">
     <g id="line2d_58">
      <g>
       <use xlink:href="#m3ea99fdf43" x="38.27" y="206.108119" style="stroke: #000000; stroke-width: 0.8"/>
      </g>
     </g>
     <g id="text_60">
      <!-- 6 -->
      <g transform="translate(24.9075 209.907338) scale(0.1 -0.1)">
       <use xlink:href="#DejaVuSans-36"/>
      </g>
     </g>
    </g>
    <g id="text_61">
     <!-- Count -->
     <g transform="translate(18.827813 264.923691) rotate(-90) scale(0.1 -0.1)">
      <use xlink:href="#DejaVuSans-43"/>
      <use xlink:href="#DejaVuSans-6f" x="69.824219"/>
      <use xlink:href="#DejaVuSans-75" x="131.005859"/>
      <use xlink:href="#DejaVuSans-6e" x="194.384766"/>
      <use xlink:href="#DejaVuSans-74" x="257.763672"/>
     </g>
    </g>
   </g>
   <g id="patch_58">
    <path d="M 38.27 298.670507 
L 38.27 201.48 
" style="fill: none; stroke: #000000; stroke-width: 0.8; stroke-linejoin: miter; stroke-linecap: square"/>
   </g>
   <g id="patch_59">
    <path d="M 991.250172 298.670507 
L 991.250172 201.48 
" style="fill: none; stroke: #000000; stroke-width: 0.8; stroke-linejoin: miter; stroke-linecap: square"/>
   </g>
   <g id="patch_60">
    <path d="M 38.27 298.670507 
L 991.250172 298.670507 
" style="fill: none; stroke: #000000; stroke-width: 0.8; stroke-linejoin: miter; stroke-linecap: square"/>
   </g>
   <g id="patch_61">
    <path d="M 38.27 201.48 
L 991.250172 201.48 
" style="fill: none; stroke: #000000; stroke-width: 0.8; stroke-linejoin: miter; stroke-linecap: square"/>
   </g>
   <g id="text_62">
    <!-- Top 25 DATE in The Civil Rights Movement (1960-1970) for 31 movies -->
    <g transform="translate(305.513836 195.48) scale(0.12 -0.12)">
     <defs>
      <path id="DejaVuSans-52" d="M 2841 2188 
Q 3044 2119 3236 1894 
Q 3428 1669 3622 1275 
L 4263 0 
L 3584 0 
L 2988 1197 
Q 2756 1666 2539 1819 
Q 2322 1972 1947 1972 
L 1259 1972 
L 1259 0 
L 628 0 
L 628 4666 
L 2053 4666 
Q 2853 4666 3247 4331 
Q 3641 3997 3641 3322 
Q 3641 2881 3436 2590 
Q 3231 2300 2841 2188 
z
M 1259 4147 
L 1259 2491 
L 2053 2491 
Q 2509 2491 2742 2702 
Q 2975 2913 2975 3322 
Q 2975 3731 2742 3939 
Q 2509 4147 2053 4147 
L 1259 4147 
z
" transform="scale(0.015625)"/>
      <path id="DejaVuSans-67" d="M 2906 1791 
Q 2906 2416 2648 2759 
Q 2391 3103 1925 3103 
Q 1463 3103 1205 2759 
Q 947 2416 947 1791 
Q 947 1169 1205 825 
Q 1463 481 1925 481 
Q 2391 481 2648 825 
Q 2906 1169 2906 1791 
z
M 3481 434 
Q 3481 -459 3084 -895 
Q 2688 -1331 1869 -1331 
Q 1566 -1331 1297 -1286 
Q 1028 -1241 775 -1147 
L 775 -588 
Q 1028 -725 1275 -790 
Q 1522 -856 1778 -856 
Q 2344 -856 2625 -561 
Q 2906 -266 2906 331 
L 2906 616 
Q 2728 306 2450 153 
Q 2172 0 1784 0 
Q 1141 0 747 490 
Q 353 981 353 1791 
Q 353 2603 747 3093 
Q 1141 3584 1784 3584 
Q 2172 3584 2450 3431 
Q 2728 3278 2906 2969 
L 2906 3500 
L 3481 3500 
L 3481 434 
z
" transform="scale(0.015625)"/>
     </defs>
     <use xlink:href="#DejaVuSans-54"/>
     <use xlink:href="#DejaVuSans-6f" x="44.083984"/>
     <use xlink:href="#DejaVuSans-70" x="105.265625"/>
     <use xlink:href="#DejaVuSans-20" x="168.742188"/>
     <use xlink:href="#DejaVuSans-32" x="200.529297"/>
     <use xlink:href="#DejaVuSans-35" x="264.152344"/>
     <use xlink:href="#DejaVuSans-20" x="327.775391"/>
     <use xlink:href="#DejaVuSans-44" x="359.5625"/>
     <use xlink:href="#DejaVuSans-41" x="434.814453"/>
     <use xlink:href="#DejaVuSans-54" x="495.472656"/>
     <use xlink:href="#DejaVuSans-45" x="556.556641"/>
     <use xlink:href="#DejaVuSans-20" x="619.740234"/>
     <use xlink:href="#DejaVuSans-69" x="651.527344"/>
     <use xlink:href="#DejaVuSans-6e" x="679.310547"/>
     <use xlink:href="#DejaVuSans-20" x="742.689453"/>
     <use xlink:href="#DejaVuSans-54" x="774.476562"/>
     <use xlink:href="#DejaVuSans-68" x="835.560547"/>
     <use xlink:href="#DejaVuSans-65" x="898.939453"/>
     <use xlink:href="#DejaVuSans-20" x="960.462891"/>
     <use xlink:href="#DejaVuSans-43" x="992.25"/>
     <use xlink:href="#DejaVuSans-69" x="1062.074219"/>
     <use xlink:href="#DejaVuSans-76" x="1089.857422"/>
     <use xlink:href="#DejaVuSans-69" x="1149.037109"/>
     <use xlink:href="#DejaVuSans-6c" x="1176.820312"/>
     <use xlink:href="#DejaVuSans-20" x="1204.603516"/>
     <use xlink:href="#DejaVuSans-52" x="1236.390625"/>
     <use xlink:href="#DejaVuSans-69" x="1305.873047"/>
     <use xlink:href="#DejaVuSans-67" x="1333.65625"/>
     <use xlink:href="#DejaVuSans-68" x="1397.132812"/>
     <use xlink:href="#DejaVuSans-74" x="1460.511719"/>
     <use xlink:href="#DejaVuSans-73" x="1499.720703"/>
     <use xlink:href="#DejaVuSans-20" x="1551.820312"/>
     <use xlink:href="#DejaVuSans-4d" x="1583.607422"/>
     <use xlink:href="#DejaVuSans-6f" x="1669.886719"/>
     <use xlink:href="#DejaVuSans-76" x="1731.068359"/>
     <use xlink:href="#DejaVuSans-65" x="1790.248047"/>
     <use xlink:href="#DejaVuSans-6d" x="1851.771484"/>
     <use xlink:href="#DejaVuSans-65" x="1949.183594"/>
     <use xlink:href="#DejaVuSans-6e" x="2010.707031"/>
     <use xlink:href="#DejaVuSans-74" x="2074.085938"/>
     <use xlink:href="#DejaVuSans-20" x="2113.294922"/>
     <use xlink:href="#DejaVuSans-28" x="2145.082031"/>
     <use xlink:href="#DejaVuSans-31" x="2184.095703"/>
     <use xlink:href="#DejaVuSans-39" x="2247.71875"/>
     <use xlink:href="#DejaVuSans-36" x="2311.341797"/>
     <use xlink:href="#DejaVuSans-30" x="2374.964844"/>
     <use xlink:href="#DejaVuSans-2d" x="2438.587891"/>
     <use xlink:href="#DejaVuSans-31" x="2474.671875"/>
     <use xlink:href="#DejaVuSans-39" x="2538.294922"/>
     <use xlink:href="#DejaVuSans-37" x="2601.917969"/>
     <use xlink:href="#DejaVuSans-30" x="2665.541016"/>
     <use xlink:href="#DejaVuSans-29" x="2729.164062"/>
     <use xlink:href="#DejaVuSans-20" x="2768.177734"/>
     <use xlink:href="#DejaVuSans-66" x="2799.964844"/>
     <use xlink:href="#DejaVuSans-6f" x="2835.169922"/>
     <use xlink:href="#DejaVuSans-72" x="2896.351562"/>
     <use xlink:href="#DejaVuSans-20" x="2937.464844"/>
     <use xlink:href="#DejaVuSans-33" x="2969.251953"/>
     <use xlink:href="#DejaVuSans-31" x="3032.875"/>
     <use xlink:href="#DejaVuSans-20" x="3096.498047"/>
     <use xlink:href="#DejaVuSans-6d" x="3128.285156"/>
     <use xlink:href="#DejaVuSans-6f" x="3225.697266"/>
     <use xlink:href="#DejaVuSans-76" x="3286.878906"/>
     <use xlink:href="#DejaVuSans-69" x="3346.058594"/>
     <use xlink:href="#DejaVuSans-65" x="3373.841797"/>
     <use xlink:href="#DejaVuSans-73" x="3435.365234"/>
    </g>
   </g>
  </g>
 </g>
 <defs>
  <clipPath id="p0a1a51b807">
   <rect x="38.27" y="26.88" width="952.980172" height="97.190507"/>
  </clipPath>
  <clipPath id="pe849b54462">
   <rect x="38.27" y="201.48" width="952.980172" height="97.190507"/>
  </clipPath>
 </defs>
</svg>
